<svg xmlns="http://www.w3.org/2000/svg" version="1.1" xmlns:xlink="http://www.w3.org/1999/xlink" id="Capa_1" x="0px" y="0px" viewBox="0 0 472.816 472.816" style="enable-background:new 0 0 472.816 472.816;" xml:space="preserve" width="472.816" height="472.816"><metadata><rdf:RDF xmlns:rdf="http://www.w3.org/1999/02/22-rdf-syntax-ns#" xmlns:dc="http://purl.org/dc/elements/1.1/"><rdf:Description><dc:creator>RealFaviconGenerator</dc:creator><dc:source>https://realfavicongenerator.net</dc:source></rdf:Description></rdf:RDF></metadata><path style="fill:#1185E0;" d="M283.429,225.698h-31.347v-84.114H219.69v84.114h-31.347V125.91c0-8.882,6.792-15.673,15.673-15.673 h63.739c8.882,0,15.673,6.792,15.673,15.673V225.698z"></path><path style="fill:#4DCFE0;" d="M235.886,109.714c-12.539,0-25.078-5.224-33.959-14.106c-18.808-19.331-18.286-49.11,0-67.918 l22.465-22.988c5.747-6.269,16.718-6.269,22.465,0l22.465,22.988c18.808,19.331,18.808,49.11,0,67.918 C260.963,104.49,248.947,109.714,235.886,109.714z M235.886,38.139l-11.494,11.494c-6.792,6.792-6.792,17.241,0,24.033l0,0 c5.747,5.747,16.718,5.747,22.465,0c6.792-6.792,6.792-17.241,0-24.033L235.886,38.139z"></path><path style="fill:#1185E0;" d="M156.996,225.698h-31.347v-52.245H93.78v52.245H62.433V157.78c0-8.882,6.792-15.673,15.673-15.673 h63.216c8.882,0,15.673,6.792,15.673,15.673V225.698z"></path><path style="fill:#4DCFE0;" d="M109.976,141.061c-12.016,0-24.033-4.702-33.437-14.106l0,0c-18.808-19.331-18.286-49.11,0-67.918 l22.465-22.988c5.747-6.269,16.718-6.269,22.465,0l22.465,22.988c18.808,19.331,18.808,49.11,0,67.918 C134.008,136.359,121.992,141.061,109.976,141.061z M98.482,105.012c6.269,6.269,16.196,6.269,22.465,0 c6.792-6.792,6.269-17.241,0-24.033l-10.971-11.494L98.482,80.98C92.212,87.771,92.212,98.22,98.482,105.012z"></path><path style="fill:#1185E0;" d="M409.339,225.698h-31.347v-52.245h-31.869v52.245h-31.347V157.78c0-8.882,6.792-15.673,15.673-15.673 h63.216c8.882,0,15.673,6.792,15.673,15.673V225.698z"></path><path style="fill:#4DCFE0;" d="M361.796,141.061c-12.539,0-24.555-5.225-33.437-14.106l0,0c-18.808-19.331-18.286-49.11,0-67.918 l22.465-22.988c5.747-6.269,16.718-6.269,22.465,0l22.465,22.988c18.808,19.331,18.808,49.11,0,67.918 C386.351,135.837,374.335,141.061,361.796,141.061z M350.302,105.012c6.269,6.269,16.718,6.269,22.465,0 c6.792-6.792,6.269-17.241,0-24.033l-10.971-11.494L350.302,80.98C344.033,87.771,344.033,98.22,350.302,105.012z"></path><path style="fill:#1185E0;" d="M404.637,316.082v46.498H67.135v-46.498H35.788v124.343c0,18.286,14.106,32.392,32.392,32.392 h335.412c18.286,0,32.392-14.106,32.392-32.392V316.082H404.637z M404.637,440.424c0,0.522-0.522,1.045-1.045,1.045H68.18 c-0.522,0-1.045-0.522-1.045-1.045v-46.498h337.502V440.424z"></path><path style="fill:#4DCFE0;" d="M73.927,336.457c-1.045,0-2.612,0-3.657,0c-30.824-2.612-53.812-27.69-53.812-58.514V251.82 c0-27.167,18.808-41.796,36.571-41.796h366.759c20.376,0,36.571,16.718,36.571,37.094v31.347c0,30.302-22.988,55.902-52.767,57.992 c-15.673,1.045-30.824-4.702-42.318-15.151c-1.045-0.522-1.567-1.567-2.09-2.09c-10.449,10.449-24.555,17.241-40.751,17.241 c-16.196,0-30.302-6.792-40.751-17.241c-10.449,10.971-24.555,17.241-40.751,17.241s-30.302-6.792-40.751-17.241 c-10.449,10.971-24.555,17.241-40.751,17.241s-30.302-6.792-40.751-17.241c-0.522,1.045-1.567,1.567-2.09,2.09 C102.139,331.233,88.033,336.457,73.927,336.457z M53.029,241.371c-3.135,0-5.224,4.18-5.224,10.449v26.122 c0,14.629,10.449,26.122,25.078,27.167c6.792,0.522,13.061-2.09,18.286-6.792c5.224-4.702,7.837-11.494,7.837-18.286 c0-8.882,6.792-15.673,15.673-15.673s15.673,6.792,15.673,15.673c0,13.584,11.494,25.078,25.078,25.078s25.078-11.494,25.078-25.078 c0-8.882,6.792-15.673,15.673-15.673s15.673,6.792,15.673,15.673c0,13.584,11.494,25.078,25.078,25.078s25.078-11.494,25.078-25.078 c0-8.882,6.792-15.673,15.673-15.673c8.882,0,15.673,6.792,15.673,15.673c0,13.584,11.494,25.078,25.078,25.078 c13.584,0,25.078-11.494,25.078-25.078c0-8.882,6.792-15.673,15.673-15.673c8.882,0,15.673,6.792,15.673,15.673 c0,7.314,2.612,13.584,7.837,18.286c5.224,4.702,12.016,7.314,18.808,6.792c13.061-1.045,23.51-13.061,23.51-26.645v-31.347 c0-3.135-2.612-5.747-5.224-5.747C419.788,241.371,53.029,241.371,53.029,241.371z"></path></svg>